<?xml version="1.0" standalone="no"?>
<!DOCTYPE svg PUBLIC "-//W3C//DTD SVG 20010904//EN"
 "http://www.w3.org/TR/2001/REC-SVG-20010904/DTD/svg10.dtd">
<svg version="1.0" xmlns="http://www.w3.org/2000/svg"
 width="128.000000pt" height="128.000000pt" viewBox="0 0 128.000000 128.000000"
 preserveAspectRatio="xMidYMid meet">
<metadata>
Created by potrace 1.14, written by Peter Selinger 2001-2017
</metadata>
<g transform="translate(0.000000,128.000000) scale(0.100000,-0.100000)"
fill="#000000" stroke="none">
<path d="M149 1137 c-65 -43 -62 -137 5 -178 21 -13 50 -19 89 -19 51 0 59 -3
69 -25 21 -46 0 -55 -134 -55 l-120 0 -30 -30 c-26 -27 -30 -36 -25 -68 10
-61 44 -82 132 -82 l73 0 -3 -37 c-2 -21 -4 -48 -4 -59 -1 -18 -9 -22 -48 -27
-88 -10 -122 -89 -64 -148 26 -26 36 -29 93 -29 64 0 64 0 81 -35 9 -20 17
-38 17 -40 0 -3 -20 -5 -44 -5 -62 0 -93 -14 -116 -52 -24 -39 -25 -69 -5
-108 31 -60 32 -60 510 -60 l437 0 30 30 c26 27 30 36 25 68 -8 44 -47 82 -86
82 -39 0 -43 8 -18 45 20 31 25 33 89 37 79 4 105 23 114 79 5 28 1 41 -18 63
-20 23 -35 29 -88 35 -74 8 -90 15 -90 40 0 32 22 41 101 41 63 0 82 4 110 23
46 31 60 91 32 139 -28 49 -55 58 -170 58 -90 0 -109 3 -150 25 -27 13 -56 27
-65 29 -23 7 -23 21 2 46 14 14 33 20 68 20 89 0 144 59 125 137 -6 26 -19 45
-42 60 -34 23 -35 23 -441 23 l-407 0 -34 -23z"/>
</g>
</svg>
