<svg 
 xmlns="http://www.w3.org/2000/svg"
 xmlns:xlink="http://www.w3.org/1999/xlink"
 width="62px" height="59px">
<path fill-rule="evenodd"  fill="rgb(0, 162, 255)"
 d="M61.585,28.656 C61.585,29.313 61.491,29.921 61.304,30.484 C61.115,31.46 60.834,31.563 60.460,32.31 C60.85,32.501 59.663,32.874 59.195,33.156 C58.725,33.437 58.210,33.672 57.648,33.859 C57.929,34.329 58.162,34.821 58.351,35.335 C58.538,35.852 58.632,36.438 58.632,37.93 C58.632,37.656 58.538,38.218 58.351,38.781 C58.162,39.343 57.929,39.859 57.648,40.327 C57.272,40.703 56.850,41.55 56.382,41.382 C55.912,41.712 55.444,41.969 54.976,42.156 C55.257,42.626 55.490,43.140 55.679,43.703 C55.866,44.265 55.960,44.827 55.960,45.390 C55.960,46.47 55.866,46.634 55.679,47.148 C55.490,47.664 55.257,48.156 54.976,48.624 C54.600,49.95 54.178,49.492 53.710,49.820 C53.240,50.149 52.726,50.360 52.164,50.452 C52.537,50.923 52.818,51.415 53.7,51.929 C53.194,52.446 53.288,53.32 53.288,53.687 C53.288,54.344 53.148,55.1 52.867,55.656 C52.585,56.313 52.210,56.875 51.742,57.343 C51.179,57.813 50.568,58.187 49.914,58.468 C49.257,58.749 48.553,58.890 47.804,58.890 L29.242,58.890 C28.585,58.890 27.835,58.798 26.992,58.609 C26.148,58.422 25.256,58.141 24.320,57.765 C23.382,57.484 22.443,57.132 21.507,56.710 C20.569,56.289 19.631,55.891 18.695,55.515 C17.570,55.47 16.467,54.579 15.390,54.109 C14.311,53.641 13.538,53.405 13.70,53.405 L0.273,53.405 L0.273,25.984 L1.398,25.843 C6.742,25.843 10.398,25.843 12.367,25.843 C13.210,25.843 13.984,25.751 14.687,25.562 C15.390,25.375 16.115,24.999 16.867,24.437 C17.710,23.969 18.671,23.312 19.749,22.468 C20.826,21.624 22.116,20.594 23.617,19.374 C26.521,16.938 28.233,13.890 28.749,10.234 C29.264,6.578 29.523,4.468 29.523,3.906 C29.523,3.343 29.663,2.805 29.945,2.288 C30.226,1.774 30.600,1.374 31.70,1.93 C31.538,0.720 32.30,0.460 32.546,0.320 C33.60,0.179 33.553,0.109 34.23,0.109 C34.772,0.109 35.521,0.203 36.273,0.390 C37.22,0.579 37.725,1.1 38.382,1.656 C39.37,2.313 39.553,3.181 39.929,4.257 C40.303,5.336 40.492,6.766 40.492,8.546 C40.492,10.141 40.373,11.664 40.140,13.117 C39.905,14.571 39.600,15.953 39.226,17.265 C38.945,18.579 38.593,19.774 38.171,20.851 C37.749,21.930 37.398,22.844 37.117,23.593 L56.242,23.593 C57.85,23.593 57.810,23.712 58.421,23.945 C59.30,24.180 59.617,24.531 60.179,24.999 C60.647,25.470 60.999,26.8 61.234,26.616 C61.467,27.227 61.585,27.906 61.585,28.656 L61.585,28.656 L61.585,28.656 ZM56.242,31.609 C56.710,31.609 57.132,31.538 57.507,31.398 C57.881,31.257 58.162,31.46 58.351,30.765 C58.632,30.484 58.865,30.180 59.54,29.851 C59.241,29.524 59.335,29.126 59.335,28.656 C59.335,27.906 59.54,27.249 58.492,26.687 C57.929,26.124 57.178,25.843 56.242,25.843 L47.804,25.843 C47.804,25.937 47.804,25.937 47.804,25.843 L33.320,25.843 L34.163,24.155 C36.787,17.687 38.101,12.484 38.101,8.546 C38.101,5.452 37.585,3.648 36.554,3.132 C35.521,2.618 34.678,2.359 34.23,2.359 C33.742,2.359 33.320,2.499 32.757,2.781 C32.195,3.62 31.914,3.438 31.914,3.906 C31.914,4.468 31.865,5.406 31.773,6.718 C31.678,8.32 31.397,9.531 30.929,11.218 C30.459,12.906 29.780,14.641 28.890,16.421 C27.998,18.203 26.756,19.750 25.163,21.62 C23.568,22.376 22.232,23.477 21.156,24.367 C20.77,25.259 19.68,25.984 18.132,26.546 C17.194,27.109 16.256,27.531 15.320,27.812 C14.382,28.93 13.397,28.234 12.367,28.234 C11.615,28.234 10.796,28.234 9.906,28.234 C9.14,28.234 8.100,28.234 7.163,28.234 C6.320,28.234 5.498,28.234 4.703,28.234 C3.905,28.234 3.226,28.234 2.663,28.234 L2.663,51.15 L13.70,51.15 C13.724,51.15 14.592,51.226 15.671,51.648 C16.748,52.70 18.84,52.610 19.679,53.265 C20.428,53.641 21.248,54.38 22.140,54.460 C23.30,54.882 23.898,55.234 24.742,55.515 C25.678,55.796 26.521,56.56 27.273,56.289 C28.22,56.523 28.679,56.640 29.242,56.640 L44.851,56.640 L47.804,56.640 C48.272,56.640 48.694,56.548 49.70,56.359 C49.443,56.172 49.773,55.937 50.54,55.656 C50.335,55.469 50.546,55.187 50.687,54.812 C50.828,54.438 50.898,54.63 50.898,53.687 C50.898,53.219 50.828,52.821 50.687,52.492 C50.546,52.164 50.335,51.859 50.54,51.577 C49.773,51.296 49.443,51.85 49.70,50.945 C48.694,50.804 48.272,50.734 47.804,50.734 L47.523,50.734 L47.523,48.343 L50.757,48.343 C51.131,48.343 51.507,48.273 51.882,48.132 C52.256,47.992 52.585,47.781 52.867,47.499 C53.53,47.218 53.240,46.891 53.429,46.515 C53.616,46.142 53.710,45.766 53.710,45.390 C53.710,45.16 53.616,44.641 53.429,44.265 C53.240,43.891 53.53,43.562 52.867,43.281 C52.585,43.94 52.256,42.907 51.882,42.718 C51.507,42.531 51.131,42.437 50.757,42.437 L49.773,42.437 L49.773,40.46 L53.288,40.46 C53.662,40.46 54.38,39.976 54.413,39.835 C54.787,39.695 55.117,39.484 55.398,39.202 C55.679,38.921 55.912,38.594 56.101,38.218 C56.288,37.845 56.382,37.469 56.382,37.93 C56.382,36.625 56.288,36.203 56.101,35.828 C55.912,35.454 55.679,35.173 55.398,34.984 C55.117,34.702 54.787,34.470 54.413,34.281 C54.38,34.94 53.662,33.999 53.288,33.999 L52.164,33.999 L52.164,31.609 L56.242,31.609 L56.242,31.609 L56.242,31.609 L56.242,31.609 L56.242,31.609 Z"/>
</svg>