<svg 
 xmlns="http://www.w3.org/2000/svg"
 xmlns:xlink="http://www.w3.org/1999/xlink"
 width="58px" height="57px">
<path fill-rule="evenodd"  fill="rgb(84, 116, 253)"
 d="M57.265,53.812 L54.312,56.765 L37.999,40.452 C37.61,41.296 36.31,42.48 34.906,42.703 C33.781,43.360 32.607,43.922 31.390,44.390 C30.171,44.860 28.881,45.212 27.523,45.445 C26.163,45.680 24.827,45.796 23.515,45.796 C20.327,45.796 17.350,45.188 14.585,43.968 C11.819,42.751 9.404,41.109 7.343,39.46 C5.280,36.985 3.663,34.571 2.492,31.804 C1.318,29.40 0.734,26.109 0.734,23.15 C0.734,19.829 1.318,16.852 2.492,14.85 C3.663,11.321 5.280,8.906 7.343,6.843 C9.404,4.782 11.819,3.165 14.585,1.991 C17.350,0.820 20.327,0.234 23.515,0.234 C26.609,0.234 29.538,0.820 32.304,1.991 C35.68,3.165 37.483,4.782 39.546,6.843 C41.607,8.906 43.249,11.321 44.468,14.85 C45.685,16.852 46.296,19.829 46.296,23.15 C46.296,24.329 46.178,25.665 45.945,27.23 C45.710,28.383 45.358,29.673 44.890,30.890 C44.420,32.110 43.857,33.281 43.203,34.406 C42.546,35.531 41.796,36.563 40.953,37.499 L57.265,53.812 L57.265,53.812 ZM3.124,23.15 C3.124,25.828 3.639,28.453 4.671,30.890 C5.702,33.329 7.154,35.484 9.31,37.359 C10.905,39.235 13.85,40.712 15.570,41.788 C18.53,42.867 20.703,43.406 23.515,43.406 C26.328,43.406 28.951,42.867 31.390,41.788 C33.827,40.712 35.982,39.235 37.859,37.359 C39.733,35.484 41.210,33.329 42.289,30.890 C43.365,28.453 43.906,25.828 43.906,23.15 C43.906,20.203 43.365,17.555 42.289,15.70 C41.210,12.587 39.733,10.407 37.859,8.531 C35.982,6.656 33.827,5.204 31.390,4.171 C28.951,3.141 26.328,2.624 23.515,2.624 C20.703,2.624 18.53,3.141 15.570,4.171 C13.85,5.204 10.905,6.656 9.31,8.531 C7.154,10.407 5.702,12.587 4.671,15.70 C3.639,17.555 3.124,20.203 3.124,23.15 L3.124,23.15 Z"/>
</svg>