<svg 
 xmlns="http://www.w3.org/2000/svg"
 xmlns:xlink="http://www.w3.org/1999/xlink"
 width="60px" height="61px">
<path fill-rule="evenodd"  fill="rgb(255, 99, 99)"
 d="M29.999,0.546 C34.124,0.546 38.15,1.320 41.671,2.866 C45.328,4.414 48.514,6.547 51.234,9.265 C53.952,11.985 56.85,15.171 57.632,18.828 C59.179,22.484 59.953,26.375 59.953,30.499 C59.953,34.626 59.179,38.515 57.632,42.171 C56.85,45.827 53.952,49.16 51.234,51.734 C48.514,54.454 45.328,56.585 41.671,58.132 C38.15,59.679 34.124,60.453 29.999,60.453 C25.873,60.453 21.984,59.679 18.328,58.132 C14.671,56.585 11.483,54.454 8.765,51.734 C6.45,49.16 3.914,45.827 2.367,42.171 C0.820,38.515 0.46,34.626 0.46,30.499 C0.46,26.375 0.820,22.484 2.367,18.828 C3.914,15.171 6.45,11.985 8.765,9.265 C11.483,6.547 14.671,4.414 18.328,2.866 C21.984,1.320 25.873,0.546 29.999,0.546 L29.999,0.546 ZM29.999,58.62 C33.842,58.62 37.428,57.337 40.757,55.882 C44.84,54.430 47.15,52.485 49.546,50.46 C51.983,47.515 53.928,44.586 55.382,41.257 C56.835,37.930 57.562,34.345 57.562,30.499 C57.562,26.656 56.835,23.70 55.382,19.742 C53.928,16.415 51.983,13.484 49.546,10.952 C47.15,8.516 44.84,6.571 40.757,5.117 C37.428,3.664 33.842,2.937 29.999,2.937 C26.154,2.937 22.568,3.664 19.242,5.117 C15.913,6.571 12.984,8.516 10.453,10.952 C8.14,13.484 6.69,16.415 4.617,19.742 C3.162,23.70 2.437,26.656 2.437,30.499 C2.437,34.345 3.162,37.930 4.617,41.257 C6.69,44.586 8.14,47.515 10.453,50.46 C12.984,52.485 15.913,54.430 19.242,55.882 C22.568,57.337 26.154,58.62 29.999,58.62 L29.999,58.62 ZM45.46,19.812 C45.328,19.438 45.725,19.249 46.242,19.249 C46.756,19.249 47.202,19.438 47.578,19.812 C47.859,20.188 47.999,20.634 47.999,21.148 C47.999,21.664 47.810,22.62 47.437,22.343 L26.906,42.312 C26.811,42.501 26.646,42.617 26.413,42.663 C26.178,42.712 25.967,42.734 25.781,42.734 C25.499,42.734 25.240,42.712 25.7,42.663 C24.772,42.617 24.607,42.501 24.515,42.312 L16.499,34.296 C16.124,33.923 15.937,33.477 15.937,32.960 C15.937,32.446 16.124,32.46 16.499,31.765 C16.781,31.391 17.178,31.203 17.695,31.203 C18.209,31.203 18.655,31.391 19.31,31.765 L25.781,38.515 L45.46,19.812 L45.46,19.812 Z"/>
</svg>