<?xml version="1.0" standalone="no"?>
<!DOCTYPE svg PUBLIC "-//W3C//DTD SVG 20010904//EN"
 "http://www.w3.org/TR/2001/REC-SVG-20010904/DTD/svg10.dtd">
<svg version="1.0" xmlns="http://www.w3.org/2000/svg"
 width="100.000000pt" height="100.000000pt" viewBox="0 0 100.000000 100.000000"
 preserveAspectRatio="xMidYMid meet">
<metadata>
Created by potrace 1.14, written by Peter Selinger 2001-2017
</metadata>
<g transform="translate(0.000000,100.000000) scale(0.100000,-0.100000)"
fill="#000000" stroke="none">
<path d="M196 914 c-9 -8 -16 -19 -16 -23 0 -4 -11 -13 -25 -19 -14 -6 -25
-19 -25 -29 0 -15 3 -14 16 5 8 12 22 22 30 22 8 0 14 6 14 14 0 8 10 22 22
30 12 9 17 16 11 16 -6 0 -19 -7 -27 -16z"/>
<path d="M792 910 c0 -14 2 -19 5 -12 2 6 2 18 0 25 -3 6 -5 1 -5 -13z"/>
<path d="M736 897 c3 -10 9 -15 12 -12 3 3 0 11 -7 18 -10 9 -11 8 -5 -6z"/>
<path d="M845 899 c-4 -6 -5 -12 -2 -15 2 -3 7 2 10 11 7 17 1 20 -8 4z"/>
<path d="M697 859 c7 -7 15 -10 18 -7 3 3 -2 9 -12 12 -14 6 -15 5 -6 -5z"/>
<path d="M750 850 c-11 -11 -20 -31 -20 -45 0 -14 9 -34 20 -45 11 -11 31 -20
45 -20 14 0 34 9 45 20 11 11 20 31 20 45 0 14 -9 34 -20 45 -11 11 -31 20
-45 20 -14 0 -34 -9 -45 -20z"/>
<path d="M880 860 c-9 -6 -10 -10 -3 -10 6 0 15 5 18 10 8 12 4 12 -15 0z"/>
<path d="M195 800 c-26 -29 -15 -32 13 -4 12 13 19 24 14 24 -5 0 -17 -9 -27
-20z"/>
<path d="M298 803 c-34 -13 -38 -19 -38 -50 0 -29 -4 -36 -30 -44 l-30 -11 0
-171 0 -172 -70 -100 c-38 -55 -70 -103 -70 -106 0 -19 149 -30 241 -18 47 7
86 5 139 -5 41 -7 97 -11 125 -9 60 7 89 7 180 1 77 -5 195 9 195 22 0 5 -20
23 -45 40 l-45 31 0 94 c0 57 -4 95 -10 95 -5 0 -10 -13 -10 -30 0 -20 -5 -30
-15 -30 -11 0 -15 18 -17 81 -3 74 -5 84 -28 100 -21 16 -31 17 -67 8 -39 -10
-43 -14 -43 -43 0 -23 -9 -41 -35 -66 -34 -33 -35 -36 -35 -109 l0 -76 -20 30
c-18 27 -20 47 -20 233 l0 202 -35 0 -35 0 0 -55 c0 -42 -3 -55 -15 -55 -12 0
-15 18 -15 98 l0 99 -51 16 c-61 20 -54 20 -101 0z"/>
<path d="M678 803 c6 -2 18 -2 25 0 6 3 1 5 -13 5 -14 0 -19 -2 -12 -5z"/>
<path d="M888 803 c6 -2 18 -2 25 0 6 3 1 5 -13 5 -14 0 -19 -2 -12 -5z"/>
<path d="M700 755 c-7 -9 -8 -15 -2 -15 5 0 12 7 16 15 3 8 4 15 2 15 -2 0 -9
-7 -16 -15z"/>
<path d="M870 756 c0 -2 7 -7 16 -10 8 -3 12 -2 9 4 -6 10 -25 14 -25 6z"/>
<path d="M736 713 c-6 -14 -5 -15 5 -6 7 7 10 15 7 18 -3 3 -9 -2 -12 -12z"/>
<path d="M840 721 c0 -6 4 -13 10 -16 6 -3 7 1 4 9 -7 18 -14 21 -14 7z"/>
<path d="M792 700 c0 -14 2 -19 5 -12 2 6 2 18 0 25 -3 6 -5 1 -5 -13z"/>
</g>
</svg>
